<svg xmlns="http://www.w3.org/2000/svg" width="50" height="50" viewBox="0 0 50 50">
    <g fill="none" fill-rule="evenodd">
        <g fill="#000">
            <g>
                <g>
                    <path d="M25 0c13.798 0 25 11.202 25 25S38.798 50 25 50 0 38.798 0 25 11.202 0 25 0zm-4.403 38.297c11.062 0 17.111-9.167 17.111-17.112 0-.262 0-.524-.012-.773 1.172-.848 2.195-1.908 3.006-3.118-1.073.474-2.233.798-3.455.948 1.247-.749 2.195-1.921 2.644-3.33-1.16.686-2.445 1.184-3.817 1.459-1.097-1.173-2.656-1.896-4.39-1.896-3.317 0-6.011 2.694-6.011 6.012 0 .474.05.935.162 1.371-5.001-.249-9.429-2.644-12.397-6.285-.512.885-.811 1.92-.811 3.018 0 2.083 1.06 3.929 2.681 5.001-.985-.025-1.908-.3-2.718-.748v.075c0 2.918 2.07 5.338 4.826 5.899-.499.137-1.035.212-1.584.212-.386 0-.76-.037-1.135-.112.761 2.394 2.981 4.128 5.613 4.178-2.058 1.609-4.652 2.57-7.471 2.57-.486 0-.96-.026-1.434-.088 2.631 1.72 5.8 2.719 9.192 2.719z" transform="translate(-288 -494) translate(141 446) translate(147 48)"/>
                </g>
            </g>
        </g>
    </g>
</svg>
